HIERARCHY
ROOT Hips
{
	OFFSET 0.000000 0.000000 0.000000 
	CHANNELS 6 Xposition Yposition Zposition Zrotation Yrotation Xrotation
	JOINT LeftUpLeg
	{
		OFFSET 1.363060 -1.794630 0.839290 
		CHANNELS 3 Zrotation Yrotation Xrotation
		JOINT LeftLeg
		{
			OFFSET 2.448110 -6.726130 0.000000 
			CHANNELS 3 Zrotation Yrotation Xrotation
			JOINT LeftFoot
			{
				OFFSET 2.562200 -7.039590 0.000000 
				CHANNELS 3 Zrotation Yrotation Xrotation
				JOINT LeftToeBase
				{
					OFFSET 0.157640 -0.433110 2.322550 
					CHANNELS 3 Zrotation Yrotation Xrotation
					End Site
					{
						OFFSET 0.000000 0.000000 0.000000 
					}
				}
			}
		}
	}
	JOINT RightUpLeg
	{
		OFFSET -1.305520 -1.794630 0.839290 
		CHANNELS 3 Zrotation Yrotation Xrotation
		JOINT RightLeg
		{
			OFFSET -2.542530 -6.985550 0.000000 
			CHANNELS 3 Zrotation Yrotation Xrotation
			JOINT RightFoot
			{
				OFFSET -2.568260 -7.056230 0.000000 
				CHANNELS 3 Zrotation Yrotation Xrotation
				JOINT RightToeBase
				{
					OFFSET -0.164730 -0.452590 2.363150 
					CHANNELS 3 Zrotation Yrotation Xrotation
					End Site
					{
						OFFSET 0.000000 0.000000 0.000000 
					}
				}
			}
		}
	}
	JOINT Spine
	{
		OFFSET 0.028270 2.035590 -0.193380 
		CHANNELS 3 Zrotation Yrotation Xrotation
		JOINT Spine1
		{
			OFFSET 0.056720 2.048850 -0.042750 
			CHANNELS 3 Zrotation Yrotation Xrotation
			JOINT Neck1
			{
				OFFSET -0.054170 1.746240 0.172020 
				CHANNELS 3 Zrotation Yrotation Xrotation
				JOINT Head
				{
					OFFSET 0.104070 1.761360 -0.123970 
					CHANNELS 3 Zrotation Yrotation Xrotation
					End Site
					{
						OFFSET 0.000000 0.000000 0.000000 
					}
				}
			}
			JOINT LeftArm
			{
				OFFSET 3.362410 1.200890 -0.311210 
				CHANNELS 3 Zrotation Yrotation Xrotation
				JOINT LeftForeArm
				{
					OFFSET 4.983000 -0.000000 -0.000000 
					CHANNELS 3 Zrotation Yrotation Xrotation
					JOINT LeftHand
					{
						OFFSET 3.483560 -0.000000 -0.000000 
						CHANNELS 3 Zrotation Yrotation Xrotation
						JOINT LeftHandIndex1
						{
							OFFSET 0.715260 -0.000000 -0.000000 
							CHANNELS 3 Zrotation Yrotation Xrotation
							End Site
							{
								OFFSET 0.000000 0.000000 0.000000 
							}
						}
					}
				}
			}
			JOINT RightArm
			{
				OFFSET -3.136600 1.374050 -0.404650 
				CHANNELS 3 Zrotation Yrotation Xrotation
				JOINT RightForeArm
				{
					OFFSET -5.241900 -0.000000 -0.000000 
					CHANNELS 3 Zrotation Yrotation Xrotation
					JOINT RightHand
					{
						OFFSET -3.444170 -0.000000 -0.000000 
						CHANNELS 3 Zrotation Yrotation Xrotation
						JOINT RightHandIndex1
						{
							OFFSET -0.622530 -0.000000 -0.000000 
							CHANNELS 3 Zrotation Yrotation Xrotation
							End Site
							{
								OFFSET 0.000000 0.000000 0.000000 
							}
						}
					}
				}
			}
		}
	}
}
MOTION
Frames: 18
Frame Time: 0.041667
11.259864 17.242940 5.869033 5.192200 -63.144797 9.075109 -5.743458 -1.570592 -50.645965 10.227048 16.582289 59.449748 0.395864 -6.203126 4.052361 0.074200 -1.757500 -4.835900 2.991585 12.060300 -37.158416 -8.757938 -15.022665 53.505899 1.781352 -12.888702 -15.855142 -0.005100 -0.460700 1.265800 -3.004550 2.554850 21.133536 0.011280 1.072074 -4.282315 -12.540492 7.946565 -13.105366 -5.471500 3.463000 0.666500 -77.968902 38.436701 40.068294 12.084194 -12.960027 -1.629452 -0.700210 -0.804542 44.782619 -7.125000 0.000000 0.000000 98.180240 -30.336707 -41.208729 -8.402937 10.955364 -0.880938 -0.966645 -0.631503 64.658059 7.125000 0.000000 0.000000 
11.287059 17.196641 5.857629 4.393108 -62.798628 9.583313 -4.098411 -2.733797 -51.203254 10.655764 16.770969 60.712702 0.123364 -2.009930 1.261211 0.149600 -2.492700 -6.869400 3.163711 11.546838 -37.226689 -8.998162 -15.225497 54.363537 2.014701 -13.817648 -15.504457 -0.001000 -0.206400 0.567200 -1.025183 -0.723982 21.257903 1.781936 -0.438065 -3.948445 -9.626860 10.705763 -15.755346 -3.975700 5.116500 -0.651900 -88.211414 39.748056 28.689604 12.005529 -12.758953 -1.528793 -0.716503 -0.966001 46.722350 -7.125000 0.000000 0.000000 89.473945 -31.361731 -34.116765 -8.056010 10.479868 -0.809757 -0.973801 -0.603098 66.221414 7.125000 0.000000 0.000000 
11.314839 17.149561 5.853730 4.357256 -62.729322 9.679255 -2.463979 -4.198668 -51.512610 10.853275 16.857347 61.264974 -0.162715 1.232003 -0.711613 0.115900 -2.195200 -6.045500 2.775945 11.079372 -37.323015 -9.191118 -15.397639 55.078719 2.148132 -14.443089 -15.592391 -0.007800 -0.569300 1.564300 -0.950262 -1.013745 21.431261 1.887739 -0.598441 -3.623399 -9.029857 10.859431 -16.444529 -3.673000 5.214900 -0.935300 -88.760113 40.070401 29.269628 12.110530 -12.927347 -1.565306 -0.662953 -0.985674 45.446051 -7.125000 0.000000 0.000000 88.962034 -31.495983 -34.029569 -8.041642 10.470092 -0.802386 -0.891456 -0.616980 66.928088 7.125000 0.000000 0.000000 
11.342229 17.089421 5.855777 4.062130 -62.829613 9.897708 -0.551084 -5.573147 -51.394942 10.792563 16.830406 61.016747 -0.339679 2.995627 -2.099460 0.060300 -1.584600 -4.358900 2.432211 10.738656 -37.258579 -9.365256 -15.539831 55.735435 2.202586 -14.877642 -16.201656 -0.033800 -1.185900 3.260400 -1.322888 -0.694682 21.567383 1.416214 -0.469865 -3.506901 -8.713275 10.496476 -16.671811 -3.640500 5.002000 -0.998500 -87.418857 40.460133 31.091223 12.259281 -13.129656 -1.606087 -0.539172 -0.947141 44.196278 -7.125000 0.000000 0.000000 90.012952 -31.753330 -35.248541 -7.995898 10.389525 -0.780907 -0.760131 -0.631554 67.650939 7.125000 0.000000 0.000000 
11.367474 17.019338 5.864452 3.200277 -63.107885 10.351362 1.716299 -6.744440 -50.614857 10.453593 16.672646 59.882298 -0.366002 3.271819 -2.715868 0.048400 -1.420500 -3.906500 2.294346 10.630269 -36.908965 -9.553523 -15.660378 56.394506 2.375787 -15.740989 -16.592166 -0.068000 -1.682200 4.628300 -1.497014 -0.328748 21.772957 0.945775 -0.306658 -3.429064 -8.720908 10.160987 -16.587325 -3.715400 4.797500 -0.909800 -86.340088 40.725804 31.973124 12.304194 -13.186836 -1.616042 -0.487204 -0.931027 43.934994 -7.125000 0.000000 0.000000 90.900222 -31.907079 -37.946498 -7.872335 10.264749 -0.750246 -0.713405 -0.606664 69.691771 7.125000 0.000000 0.000000 
11.389990 16.936291 5.873029 3.121893 -63.616768 10.108987 3.703426 -7.993977 -49.305796 9.861262 16.337155 57.884195 -0.285750 2.453561 -2.089516 0.110000 -2.138900 -5.889600 1.524659 10.760983 -36.528965 -9.729395 -15.791734 57.038576 2.503094 -16.466521 -17.171762 -0.140100 -2.412600 6.647500 -1.642893 -0.086051 22.020530 0.784266 -0.211497 -3.173421 -8.802108 9.991885 -17.000183 -3.771000 4.708900 -1.042900 -86.076211 40.821001 31.965788 12.230462 -13.083068 -1.596608 -0.504596 -0.954233 43.742879 -7.125000 0.000000 0.000000 91.215859 -31.981465 -40.526252 -7.730195 10.150488 -0.734792 -0.831580 -0.632513 71.972635 7.125000 0.000000 0.000000 
11.408315 16.843399 5.883361 4.593387 -64.277116 8.435548 4.987975 -9.531265 -47.460931 9.078853 15.814302 55.191332 -0.166183 1.176171 -0.691688 0.424000 -4.179000 -11.580900 -0.168605 10.884577 -36.138974 -9.864148 -15.945482 57.600504 2.580133 -17.098323 -18.087441 -0.247300 -3.199700 8.835100 -2.068945 0.130068 22.228617 0.831709 -0.153197 -2.930423 -8.747129 9.805957 -17.766989 -3.770700 4.625000 -1.351200 -85.906285 41.144259 32.272659 12.170233 -12.983815 -1.576685 -0.489492 -0.892155 43.301529 -7.125000 0.000000 0.000000 91.313762 -32.253920 -41.245343 -7.588844 9.941829 -0.699612 -0.769509 -0.621972 72.716585 7.125000 0.000000 0.000000 
11.422644 16.739883 5.901491 4.939706 -64.910170 7.720271 6.935951 -11.200517 -45.341099 8.235098 15.220898 52.226274 0.029336 -0.763123 0.735875 0.574400 -4.853400 -13.490900 -1.265158 11.113530 -35.637552 -9.972232 -16.048795 58.035729 2.660416 -17.733995 -18.970213 -0.608100 -4.991500 13.884300 -2.168693 0.296857 22.390634 0.767201 -0.088937 -2.770866 -8.534303 9.652320 -17.942307 -3.642300 4.556100 -1.456300 -85.924224 41.975688 34.232392 12.345494 -13.328197 -1.688379 -0.643986 -0.888212 44.148160 -7.125000 0.000000 0.000000 91.116179 -32.874841 -40.393526 -7.461613 9.706283 -0.672640 -0.776305 -0.638666 72.283997 7.125000 0.000000 0.000000 
11.435803 16.615800 5.926249 3.914935 -65.724545 8.320715 9.580291 -12.743084 -43.022914 7.472534 14.684788 49.492565 0.346367 -3.427937 -0.668791 0.815400 -5.762200 -16.095900 -1.756771 11.760957 -35.129992 -10.077204 -16.096068 58.401794 2.777932 -18.449612 -19.668981 -1.110600 -6.695400 18.816100 -1.989674 0.449700 22.525183 0.466374 0.000574 -2.514137 -8.358330 9.612034 -18.017774 -3.479500 4.564000 -1.561100 -86.556342 42.434655 33.018241 12.504618 -13.591825 -1.742260 -0.656790 -1.045653 44.312354 -7.125000 0.000000 0.000000 90.620138 -33.620669 -40.033714 -7.375039 9.574009 -0.658072 -0.788085 -0.669536 72.904330 7.125000 0.000000 0.000000 
11.457247 16.478461 5.960950 4.116175 -66.484902 7.901867 11.391052 -14.445594 -40.733106 6.937421 14.239256 47.450906 0.704498 -6.495482 -1.888536 0.804700 -5.725000 -15.988600 -2.940252 12.197813 -34.821687 -10.185660 -16.186443 58.762668 3.160837 -19.925144 -19.552923 -0.994200 -6.345600 17.790600 -2.083809 0.366699 22.574274 0.123698 -0.037927 -2.248215 -8.111987 9.732696 -18.192165 -3.259900 4.670400 -1.733200 -87.617490 42.935566 31.522429 12.514704 -13.602637 -1.725471 -0.579252 -1.091127 44.426998 -7.125000 0.000000 0.000000 89.756966 -34.400613 -39.427872 -7.292598 9.453116 -0.645748 -0.809949 -0.701740 73.759417 7.125000 0.000000 0.000000 
11.481322 16.326696 5.996040 5.583020 -67.026443 6.375064 12.090140 -15.950741 -38.934700 6.648391 13.942110 46.249239 0.995722 -8.863381 -3.275502 1.757000 -8.340300 -23.752700 -4.740418 12.134619 -34.784098 -10.310294 -16.342303 59.190715 3.618254 -21.478704 -18.808856 -0.635500 -5.100400 14.195000 -2.367295 0.243604 22.591542 -0.104822 -0.115528 -2.041973 -7.689097 9.865872 -17.798187 -2.965300 4.757200 -1.660700 -88.261822 43.514565 30.948804 12.448537 -13.519280 -1.704515 -0.604966 -1.003665 45.320181 -7.125000 0.000000 0.000000 89.175544 -35.295034 -37.946201 -7.261923 9.367186 -0.640547 -0.813302 -0.736804 73.351272 7.125000 0.000000 0.000000 
11.503351 16.156898 6.018946 7.484926 -67.635315 4.503504 12.210110 -16.772730 -37.757249 6.601875 13.851097 45.928080 1.281346 -11.273192 -4.771114 1.838900 -8.522100 -24.311600 -6.796134 12.126610 -34.920354 -10.430881 -16.517412 59.672979 3.774516 -22.038498 -18.584834 -0.631000 -5.082600 14.144200 -2.660225 0.335286 22.565905 -0.137970 -0.092016 -1.905037 -7.745856 9.853319 -17.363124 -2.921400 4.757700 -1.535600 -88.468298 44.110005 30.523942 12.498067 -13.578794 -1.710482 -0.574288 -0.955015 45.589008 -7.125000 0.000000 0.000000 89.017669 -36.104454 -38.490472 -7.212848 9.333220 -0.636685 -0.855575 -0.748748 74.319260 7.125000 0.000000 0.000000 
11.541268 15.988173 6.037271 10.069482 -68.190849 1.949376 11.311451 -16.710123 -37.613231 6.714009 13.912611 46.267831 1.481309 -12.115360 -6.695876 1.931700 -8.722300 -24.930600 -9.117435 12.182619 -34.968943 -10.518573 -16.678700 60.050073 3.870069 -22.318719 -18.187478 -0.802100 -5.716000 15.962700 -3.204216 0.498963 22.377448 -0.266783 -0.031426 -2.179098 -8.277230 9.692250 -16.979674 -3.153100 4.668500 -1.396700 -88.247023 44.728303 30.335501 12.552881 -13.642441 -1.718498 -0.541908 -0.933971 45.596023 -7.125000 0.000000 0.000000 89.121149 -36.754523 -41.376022 -7.032447 9.184267 -0.612050 -0.938976 -0.740033 77.346730 7.125000 0.000000 0.000000 
11.590589 15.843816 6.040683 12.605803 -68.514863 -0.787716 9.928613 -16.018281 -37.867418 6.987750 14.143766 47.307706 1.591722 -11.589118 -8.613141 1.899500 -8.653600 -24.717700 -11.198326 12.224728 -34.705150 -10.564722 -16.795916 60.197982 4.163714 -23.082544 -16.695030 -0.794700 -5.690400 15.888700 -3.731126 0.710661 22.287899 -0.501479 0.049218 -2.607338 -8.713710 9.384686 -16.572077 -3.367700 4.486400 -1.212400 -87.608402 44.894396 30.111375 12.359277 -13.336787 -1.646526 -0.530386 -0.903453 46.301614 -7.125000 0.000000 0.000000 89.737039 -37.334920 -43.676518 -6.916196 9.086358 -0.595445 -0.975739 -0.749090 79.467504 7.125000 0.000000 0.000000 
11.631820 15.719928 6.009394 14.544461 -68.718845 -3.196940 8.531988 -14.833312 -38.279428 7.332115 14.447841 48.653987 1.607713 -10.705176 -9.790885 1.495800 -7.725800 -21.884400 -12.821060 12.589030 -34.058572 -10.553362 -16.846524 60.113516 4.449074 -23.869271 -15.195024 -0.631600 -5.084900 14.150900 -3.719483 0.877893 22.449714 -0.256907 0.112264 -2.830756 -8.980681 9.170203 -16.745466 -3.439200 4.382600 -1.262600 -87.519991 44.941742 30.474976 12.117375 -12.993168 -1.585800 -0.594342 -0.848956 47.040954 -7.125000 0.000000 0.000000 90.110470 -37.712748 -45.205752 -6.975660 9.256114 -0.611137 -0.985666 -0.737369 80.828005 7.125000 0.000000 0.000000 
11.672369 15.605787 5.953249 16.958259 -68.826631 -6.140014 6.760630 -13.456107 -38.916535 7.727937 14.792532 50.256377 1.509973 -7.979419 -11.689249 2.508300 -9.853000 -28.501900 -14.525707 13.238645 -33.173183 -10.483646 -16.881689 59.962530 4.506671 -24.176337 -15.685734 -0.107200 -2.110800 5.812000 -3.710972 0.882775 22.630209 0.274157 0.082136 -3.059090 -8.929346 9.137485 -17.480686 -3.376700 4.396500 -1.562000 -87.787371 45.424384 32.655818 12.166941 -13.158394 -1.668342 -0.753626 -0.846331 46.053059 -7.125000 0.000000 0.000000 89.938165 -37.851197 -46.786454 -7.002185 9.405842 -0.624011 -1.039457 -0.689104 82.560258 7.125000 0.000000 0.000000 
11.710481 15.513188 5.882874 19.584975 -68.779823 -9.259072 5.774576 -13.128056 -39.240285 8.160751 15.050538 51.727766 1.576667 -9.542735 -11.097628 0.994600 -6.347100 -17.795000 -16.083970 13.774912 -32.281619 -10.423335 -16.934420 59.900172 4.358695 -23.835771 -16.702922 -0.058400 1.559200 -4.289000 -3.919066 0.867332 22.836772 0.629371 0.024703 -3.260274 -8.780316 9.016003 -18.437639 -3.325200 4.357900 -1.934800 -87.779187 45.526140 32.521089 12.247335 -13.278370 -1.690430 -0.746138 -0.851472 45.598812 -7.125000 0.000000 0.000000 89.917563 -37.659751 -48.910154 -6.877241 9.316289 -0.607692 -1.113233 -0.634470 84.740743 7.125000 0.000000 0.000000 
11.742550 15.418444 5.796026 21.225655 -68.584450 -11.294961 5.258427 -12.817784 -39.771187 8.528174 15.287019 53.000294 1.600578 -9.817535 -11.337107 0.963700 -6.250400 -17.512800 -17.048599 14.160964 -31.675943 -10.471886 -17.011009 60.149907 4.128754 -23.068827 -17.066499 -0.369900 3.906800 -10.814500 -3.983021 0.859818 23.165227 0.855680 -0.028192 -3.233351 -8.992224 8.871429 -19.313949 -3.424600 4.296500 -2.214400 -87.573578 45.013351 30.509329 12.275648 -13.241065 -1.635686 -0.584499 -0.886123 45.710963 -7.125000 0.000000 0.000000 90.143593 -37.299648 -48.932122 -6.804581 9.180923 -0.591522 -1.111305 -0.619568 84.863997 7.125000 0.000000 0.000000 
